<svg width="702" height="168" viewBox="0 0 702 168" fill="none" xmlns="http://www.w3.org/2000/svg">
<g clip-path="url(#clip0_960_536)">
<rect width="702" height="168" fill="#F9F9F9"/>
<path d="M0 0C231.66 0 463.32 0 702 0C702 55.44 702 110.88 702 168C470.34 168 238.68 168 0 168C0 112.56 0 57.12 0 0Z" fill="#F9F9F9"/>
<g filter="url(#filter0_d_960_536)">
<path d="M252.978 25.1683C266.798 36.1183 273.718 50.0383 276.708 67.1883C278.278 80.9183 277.368 93.7383 273.128 106.868C272.838 107.808 272.548 108.738 272.248 109.698C266.678 125.548 254.348 136.018 239.688 143.118C225.648 148.938 205.288 149.508 191.128 143.868C175.618 137.008 163.348 125.818 157.128 109.868C150.328 87.7183 149.308 65.0183 160.128 43.8683C168.528 29.6183 180.958 19.0783 197.028 14.5283C216.158 10.7983 236.978 13.7283 252.978 25.1683Z" fill="#020202"/>
</g>
<g filter="url(#filter1_d_960_536)">
<path d="M334 15C412.57 15 412.57 15 425.25 26.69C432.37 34.34 433.64 41.08 433.32 51.47C432.72 58.16 430.56 63.33 426.02 68.32C421.42 72.15 415.07 76 409 76C409 76.66 409 77.32 409 78C410.11 78.06 411.23 78.12 412.38 78.19C421.3 79.37 427.51 83.86 433.31 90.52C437.22 96.25 438.56 101.4 438.5 108.19C438.5 108.93 438.49 109.67 438.49 110.43C438.22 119.56 435.03 127.14 429 134C419.32 142.27 406.73 146.14 394.17 146.11C393.17 146.11 393.17 146.11 392.15 146.11C390.02 146.11 387.89 146.11 385.76 146.1C384.45 146.1 383.14 146.1 381.78 146.09C376.9 146.09 372.01 146.08 367.12 146.06C356.19 146.04 345.26 146.02 334 146C334 102.77 334 59.54 334 15Z" fill="#030303"/>
</g>
<g filter="url(#filter2_d_960_536)">
<path d="M640.937 13.7505C642.077 13.7405 643.217 13.7305 644.397 13.7305C650.637 13.7405 656.037 14.1405 661.997 16.0005C663.317 16.4105 663.317 16.4105 664.647 16.8205C675.387 20.8805 684.477 28.1405 689.317 38.6905C691.657 44.2605 691.997 47.6805 691.997 54.0005C682.097 54.0005 672.197 54.0005 661.997 54.0005C660.677 51.3605 659.357 48.7205 657.997 46.0005C652.817 41.1905 649.137 40.7705 642.247 40.6905C641.447 40.6605 640.647 40.6305 639.827 40.6005C634.367 40.5405 631.347 41.4005 626.997 45.0005C624.617 47.3805 624.677 48.0505 624.627 51.3105C624.717 54.5705 624.967 55.9405 626.557 58.8705C632.557 64.1005 640.387 65.1005 647.937 66.7505C664.507 70.5905 680.007 75.2405 689.997 90.1305C694.757 98.7405 695.407 108.45 693.347 118.04C689.967 128.36 683.637 136.01 673.997 141C663.277 145.7 654.617 147.2 642.997 147.25C641.267 147.28 641.267 147.28 639.497 147.31C623.347 147.38 610.007 143.53 598.197 132.32C589.617 123.25 587.997 114.52 587.997 102C597.897 102 607.797 102 617.997 102C618.987 105.3 619.977 108.6 620.997 112C626.517 117.72 630.967 120.21 639.077 120.38C649.137 120.42 649.137 120.42 657.997 116C660.347 113.22 660.927 111.6 661.377 108C660.917 104.36 660.417 102.79 657.997 100C649.257 94.1705 636.637 92.4805 626.527 90.2305C614.547 87.5405 604.167 82.3705 595.997 73.0005C590.777 64.4805 589.637 54.2905 591.457 44.5405C594.217 35.3105 600.047 27.3905 607.997 22.0005C619.087 16.0405 628.417 13.6705 640.937 13.7505Z" fill="#020202"/>
</g>
<g filter="url(#filter3_d_960_536)">
<path d="M65 15C75.56 15 86.12 15 97 15C97.11 27.26 97.2 39.52 97.26 51.77C97.29 57.47 97.32 63.16 97.38 68.85C97.43 74.36 97.46 79.86 97.47 85.37C97.48 87.46 97.5 89.55 97.53 91.64C97.72 107.15 97.12 121.6 86.3 133.85C79.89 139.84 72.51 143.91 64 146C63.27 146.18 62.54 146.37 61.78 146.56C46.72 148.95 31.32 147.48 18.84 138.43C12.34 133.2 7.81 126.21 6 118C6 114.37 6 110.74 6 107C16.23 107 26.46 107 37 107C38.48 111.45 38.48 111.45 40 116C41.75 119.25 41.75 119.25 45 121C49.8 121.62 54.49 121.68 59.18 120.41C62.5 117.84 63.76 113.87 64.29 109.81C64.41 107.3 64.44 104.81 64.43 102.3C64.44 101.35 64.45 100.41 64.46 99.43C64.49 96.32 64.5 93.21 64.51 90.1C64.53 87.93 64.55 85.77 64.57 83.6C64.61 77.92 64.64 72.24 64.67 66.55C64.7 60.75 64.75 54.94 64.79 49.14C64.88 37.76 64.94 26.38 65 15Z" fill="#050505"/>
</g>
<path d="M231 45.0003C231.63 45.3903 232.25 45.7803 232.89 46.1803C239.37 50.9503 243.42 59.2003 245 67.0003C245.28 71.1603 245.28 75.3303 245.31 79.5003C245.34 80.6203 245.37 81.7403 245.4 82.9003C245.48 93.3003 243.46 103.11 236.7 111.32C230.65 117.3 223.62 120.04 215.19 120.38C207.01 120.21 200.58 117.35 194.57 111.83C186.79 102.75 185.65 91.5703 185.69 80.1203C185.67 79.1003 185.66 78.0803 185.64 77.0203C185.63 66.1703 188.08 56.3903 195.6 48.2803C205.38 39.2103 219.61 37.8803 231 45.0003Z" fill="#F9F9F9"/>
<g filter="url(#filter4_d_960_536)">
<path d="M497 15C507.56 15 518.12 15 529 15C528.86 19.11 528.71 23.22 528.57 27.45C528.02 43.21 527.51 58.97 527 74.73C526.89 78.28 526.78 81.83 526.66 85.38C526.44 92.25 526.22 99.13 526 106C517.09 106 508.18 106 499 106C497.71 75.69 496.77 45.34 497 15Z" fill="#030303"/>
</g>
<g filter="url(#filter5_d_960_536)">
<path d="M521.785 116.101C528.855 120.091 534.445 125.161 536.995 133.001C538.065 141.571 537.285 148.981 531.995 156.001C529.515 158.361 526.945 160.261 523.995 162.001C523.405 162.371 522.815 162.751 522.205 163.131C516.505 165.371 508.345 164.851 502.445 163.351C495.395 160.161 490.955 153.971 487.995 147.001C487.115 140.131 486.915 132.821 490.605 126.741C498.275 117.161 509.635 111.291 521.785 116.101Z" fill="#A92419"/>
</g>
<g filter="url(#filter6_d_960_536)">
<path d="M366 89.0002C370.12 88.9202 374.25 88.8302 378.5 88.7502C379.78 88.7102 381.07 88.6802 382.39 88.6402C391.11 88.5602 396.2 89.8302 403 95.5002C405.87 99.2802 405.52 103.53 405.47 108.1C404.82 112.12 403.75 114.58 400.53 117.19C394.03 121.16 386.86 120.44 379.5 120.25C375.05 120.17 370.59 120.09 366 120C366 109.77 366 99.5402 366 89.0002Z" fill="#F9F9F9"/>
</g>
<g filter="url(#filter7_d_960_536)">
<path d="M366 39.9996C369.46 39.9396 372.93 39.8796 376.5 39.8096C378.11 39.7696 378.11 39.7696 379.76 39.7296C387.35 39.6596 393.1 40.4596 399 45.6196C401.57 49.9696 401.81 53.0696 401 57.9996C399.05 63.2796 396.74 65.7196 391.71 68.0696C388.78 69.0796 386.57 69.2296 383.48 69.1996C382.56 69.1896 381.64 69.1896 380.69 69.1796C379.53 69.1596 378.38 69.1396 377.19 69.1196C371.65 69.0596 371.65 69.0596 366 68.9996C366 59.4296 366 49.8596 366 39.9996Z" fill="#F9F9F9"/>
</g>
</g>
<defs>
<filter id="filter0_d_960_536" x="151" y="13" width="133.429" height="143.805" filterUnits="userSpaceOnUse" color-interpolation-filters="sRGB">
<feFlood flood-opacity="0" result="BackgroundImageFix"/>
<feColorMatrix in="SourceAlpha" type="matrix" values="0 0 0 0 0 0 0 0 0 0 0 0 0 0 0 0 0 0 127 0" result="hardAlpha"/>
<feOffset dx="3" dy="5"/>
<feGaussianBlur stdDeviation="2"/>
<feComposite in2="hardAlpha" operator="out"/>
<feColorMatrix type="matrix" values="0 0 0 0 0 0 0 0 0 0 0 0 0 0 0 0 0 0 0.25 0"/>
<feBlend mode="normal" in2="BackgroundImageFix" result="effect1_dropShadow_960_536"/>
<feBlend mode="normal" in="SourceGraphic" in2="effect1_dropShadow_960_536" result="shape"/>
</filter>
<filter id="filter1_d_960_536" x="333" y="15" width="112.502" height="140.11" filterUnits="userSpaceOnUse" color-interpolation-filters="sRGB">
<feFlood flood-opacity="0" result="BackgroundImageFix"/>
<feColorMatrix in="SourceAlpha" type="matrix" values="0 0 0 0 0 0 0 0 0 0 0 0 0 0 0 0 0 0 127 0" result="hardAlpha"/>
<feOffset dx="3" dy="5"/>
<feGaussianBlur stdDeviation="2"/>
<feComposite in2="hardAlpha" operator="out"/>
<feColorMatrix type="matrix" values="0 0 0 0 0 0 0 0 0 0 0 0 0 0 0 0 0 0 0.25 0"/>
<feBlend mode="normal" in2="BackgroundImageFix" result="effect1_dropShadow_960_536"/>
<feBlend mode="normal" in="SourceGraphic" in2="effect1_dropShadow_960_536" result="shape"/>
</filter>
<filter id="filter2_d_960_536" x="586.997" y="13.7305" width="114.457" height="142.581" filterUnits="userSpaceOnUse" color-interpolation-filters="sRGB">
<feFlood flood-opacity="0" result="BackgroundImageFix"/>
<feColorMatrix in="SourceAlpha" type="matrix" values="0 0 0 0 0 0 0 0 0 0 0 0 0 0 0 0 0 0 127 0" result="hardAlpha"/>
<feOffset dx="3" dy="5"/>
<feGaussianBlur stdDeviation="2"/>
<feComposite in2="hardAlpha" operator="out"/>
<feColorMatrix type="matrix" values="0 0 0 0 0 0 0 0 0 0 0 0 0 0 0 0 0 0 0.25 0"/>
<feBlend mode="normal" in2="BackgroundImageFix" result="effect1_dropShadow_960_536"/>
<feBlend mode="normal" in="SourceGraphic" in2="effect1_dropShadow_960_536" result="shape"/>
</filter>
<filter id="filter3_d_960_536" x="5" y="15" width="99.5556" height="141.579" filterUnits="userSpaceOnUse" color-interpolation-filters="sRGB">
<feFlood flood-opacity="0" result="BackgroundImageFix"/>
<feColorMatrix in="SourceAlpha" type="matrix" values="0 0 0 0 0 0 0 0 0 0 0 0 0 0 0 0 0 0 127 0" result="hardAlpha"/>
<feOffset dx="3" dy="5"/>
<feGaussianBlur stdDeviation="2"/>
<feComposite in2="hardAlpha" operator="out"/>
<feColorMatrix type="matrix" values="0 0 0 0 0 0 0 0 0 0 0 0 0 0 0 0 0 0 0.25 0"/>
<feBlend mode="normal" in2="BackgroundImageFix" result="effect1_dropShadow_960_536"/>
<feBlend mode="normal" in="SourceGraphic" in2="effect1_dropShadow_960_536" result="shape"/>
</filter>
<filter id="filter4_d_960_536" x="495.965" y="15" width="40.0347" height="100" filterUnits="userSpaceOnUse" color-interpolation-filters="sRGB">
<feFlood flood-opacity="0" result="BackgroundImageFix"/>
<feColorMatrix in="SourceAlpha" type="matrix" values="0 0 0 0 0 0 0 0 0 0 0 0 0 0 0 0 0 0 127 0" result="hardAlpha"/>
<feOffset dx="3" dy="5"/>
<feGaussianBlur stdDeviation="2"/>
<feComposite in2="hardAlpha" operator="out"/>
<feColorMatrix type="matrix" values="0 0 0 0 0 0 0 0 0 0 0 0 0 0 0 0 0 0 0.25 0"/>
<feBlend mode="normal" in2="BackgroundImageFix" result="effect1_dropShadow_960_536"/>
<feBlend mode="normal" in="SourceGraphic" in2="effect1_dropShadow_960_536" result="shape"/>
</filter>
<filter id="filter5_d_960_536" x="486.459" y="114.387" width="57.9507" height="59.2598" filterUnits="userSpaceOnUse" color-interpolation-filters="sRGB">
<feFlood flood-opacity="0" result="BackgroundImageFix"/>
<feColorMatrix in="SourceAlpha" type="matrix" values="0 0 0 0 0 0 0 0 0 0 0 0 0 0 0 0 0 0 127 0" result="hardAlpha"/>
<feOffset dx="3" dy="5"/>
<feGaussianBlur stdDeviation="2"/>
<feComposite in2="hardAlpha" operator="out"/>
<feColorMatrix type="matrix" values="0 0 0 0 0 0 0 0 0 0 0 0 0 0 0 0 0 0 0.25 0"/>
<feBlend mode="normal" in2="BackgroundImageFix" result="effect1_dropShadow_960_536"/>
<feBlend mode="normal" in="SourceGraphic" in2="effect1_dropShadow_960_536" result="shape"/>
</filter>
<filter id="filter6_d_960_536" x="365" y="88.6367" width="47.5093" height="40.7881" filterUnits="userSpaceOnUse" color-interpolation-filters="sRGB">
<feFlood flood-opacity="0" result="BackgroundImageFix"/>
<feColorMatrix in="SourceAlpha" type="matrix" values="0 0 0 0 0 0 0 0 0 0 0 0 0 0 0 0 0 0 127 0" result="hardAlpha"/>
<feOffset dx="3" dy="5"/>
<feGaussianBlur stdDeviation="2"/>
<feComposite in2="hardAlpha" operator="out"/>
<feColorMatrix type="matrix" values="0 0 0 0 0 0 0 0 0 0 0 0 0 0 0 0 0 0 0.25 0"/>
<feBlend mode="normal" in2="BackgroundImageFix" result="effect1_dropShadow_960_536"/>
<feBlend mode="normal" in="SourceGraphic" in2="effect1_dropShadow_960_536" result="shape"/>
</filter>
<filter id="filter7_d_960_536" x="365" y="39.7256" width="43.4131" height="38.4775" filterUnits="userSpaceOnUse" color-interpolation-filters="sRGB">
<feFlood flood-opacity="0" result="BackgroundImageFix"/>
<feColorMatrix in="SourceAlpha" type="matrix" values="0 0 0 0 0 0 0 0 0 0 0 0 0 0 0 0 0 0 127 0" result="hardAlpha"/>
<feOffset dx="3" dy="5"/>
<feGaussianBlur stdDeviation="2"/>
<feComposite in2="hardAlpha" operator="out"/>
<feColorMatrix type="matrix" values="0 0 0 0 0 0 0 0 0 0 0 0 0 0 0 0 0 0 0.25 0"/>
<feBlend mode="normal" in2="BackgroundImageFix" result="effect1_dropShadow_960_536"/>
<feBlend mode="normal" in="SourceGraphic" in2="effect1_dropShadow_960_536" result="shape"/>
</filter>
<clipPath id="clip0_960_536">
<rect width="702" height="168" fill="white"/>
</clipPath>
</defs>
</svg>
